- 
http://www.Speed.Cd 
       
http://www.Speed.Cd      fast  and The Hottest Private Tracker on the net

(((--Submit for invite!!--)))

Please Seed back to make the speed Faster!!!

------------------nfo--------------------------
-       Zookeeper 2011 R5 XViD DTRG


Format                           : AVI
Format/Info                      : Audio Video Interleave
File size                        : 1.28 GiB
Duration                         : 1h 32mn
Overall bit rate                 : 1 980 Kbps
Writing application              : VirtualDubMod 1.5.10.2 (build 2540/release)
Writing library                  : VirtualDubMod build 2540/release

Video
ID                               : 0
Format                           : MPEG-4 Visual
Format profile                   : Advanced Simple@L5
Format settings, BVOP            : 3
Format settings, QPel            : No
Format settings, GMC             : No warppoints
Format settings, Matrix          : Default (MPEG)
Muxing mode                      : Packed bitstream
Codec ID                         : XVID
Codec ID/Hint                    : XviD
Duration                         : 1h 32mn
Bit rate                         : 1 842 Kbps
Width                            : 720 pixels
Height                           : 304 pixels
Display aspect ratio             : 2.35:1
Frame rate                       : 25.000 fps
Color space                      : YUV
Chroma subsampling               : 4:2:0
Bit depth                        : 8 bits
Scan type                        : Progressive
Compression mode                 : Lossy
Bits/(Pixel*Frame)               : 0.337
Stream size                      : 1.19 GiB (93%)
Writing library                  : XviD 64

Audio
ID                               : 1
Format                           : MPEG Audio
Format version                   : Version 1
Format profile                   : Layer 3
Mode                             : Joint stereo
Mode extension                   : MS Stereo
Codec ID                         : 55
Codec ID/Hint                    : MP3
Duration                         : 1h 32mn
Bit rate mode                    : Constant
Bit rate                         : 128 Kbps
Channel(s)                       : 2 channels
Sampling rate                    : 44.1 KHz
Compression mode                 : Lossy
Stream size                      : 85.0 MiB (6%)
Alignment                        : Split accross interleaves
Interleave, duration             : 40 ms (1.00 video frame)
Interleave, preload duration     : 500 ms
Writing library                  : LAME3.98.4

Link:http://www.imdb.com/title/tt1222817/

Plot: Griffin Keyes (Kevin James) sets up a plan to propose to the love of his life, Stephanie (Leslie Bibb), but she rejects him and claims that his career as a zookeeper is what is keeping her away, therefore breaking Griffin's heart.

Five years later, Griffin is shown to be the lead zookeeper at the Franklin Park Zoo who cares deeply for the zoo animals. That night, Griffin holds a party at the zoo for his brother Dave (Nat Faxon) who is getting married, but freaks out when he discovers that Stephanie was invited. Dave offers Griffin to come and work with him at the car dealership, explaining that it is the best way to win Stephanie. Griffin thinks that he should quit his job at the zoo and join his brother.

Cast:

    Kevin James as Griffin Keyes, the lead zookeeper.
    Rosario Dawson as Kate
    Leslie Bibb as Stephanie
    Donnie Wahlberg as Shane
    Joe Rogan as Gale
    Nat Faxon as Dave
    Ken Jeong as Venom, the worker at the reptile house.
    Steffiana De La Cruz as Robin
    Thomas Gottschalk as Jrgen Mavroc
    Brandon Keener as Nimer


Source Used


Video ........Relizlab .............Thanks

Audio .........ERDNA ...................Thanks


This could be pretty pointless if line is on the way but done it anyway .Remember this has CAM audio.....Check out the sample included 1st


Enjoy

Greetz to IMAGiNE,Flawl3ss,DiLLoN,BDK,NOiR,TOXiC,THC,Ez,Rx,Boobyblue,TaRiQ786

[imgw]http://bitpic.bitboxes.co.uk/images/150zookeeper_movie.jpg[/imgw]

[color=blue][b]Screenshots[/b][/color]

[imgw]http://bitpic.bitboxes.co.uk/images/38047880162312088178976.png[/imgw]

[imgw]http://bitpic.bitboxes.co.uk/images/93027862808865184562979.png[/imgw]

[imgw]http://bitpic.bitboxes.co.uk/images/89922079638014732421315.png[/imgw]

[imgw]http://bitpic.bitboxes.co.uk/images/19917057318780099707953.png[/imgw]

[color=Darkblue][b]eNJOY[/b][/color]